<svg xmlns="http://www.w3.org/2000/svg" viewBox="0 0 272 92">
  <path fill="#EA4335" d="M115.2 46.1c0-2.9-.3-5.7-.8-8.4H76.1v15.9h22.1c-1 5.1-3.9 9.3-8.3 12.2V76h13.5c7.9-7.3 11.8-18.1 11.8-29.9z"/>
  <path fill="#34A853" d="M76.1 85.9c10.7 0 19.7-3.5 26.2-9.5L89.8 65.9c-3.5 2.4-8 3.8-13.7 3.8-10.5 0-19.4-7.1-22.6-16.6H40.6v10.7C47.1 76.7 60.5 85.9 76.1 85.9z"/>
  <path fill="#4285F4" d="M53.5 53.1c-.8-2.4-1.3-4.9-1.3-7.5s.4-5.2 1.3-7.5V27.4H40.6c-2.7 5.3-4.3 11.3-4.3 18.2 0 6.8 1.6 12.8 4.3 18.2l12.9-10.7z"/>
  <path fill="#FBBC05" d="M76.1 21.5c5.9 0 11.3 2 15.5 6l11.6-11.6C95.8 9.2 86.8 5.7 76.1 5.7 60.5 5.7 47.1 14.9 40.6 27.4l12.9 10.7c3.2-9.5 12.1-16.6 22.6-16.6z"/>
  <path fill="#fff" d="M136.6 31.7c-8.6 0-15.6 6.6-15.6 15.3 0 8.6 7 15.3 15.6 15.3s15.6-6.6 15.6-15.3c0-8.6-7-15.3-15.6-15.3zm0 24.6c-4.7 0-8.8-3.8-8.8-9.3 0-5.5 4.1-9.3 8.8-9.3s8.8 3.8 8.8 9.3c0 5.5-4.1 9.3-8.8 9.3zm34 0c-4.7 0-8.8-3.8-8.8-9.3 0-5.5 4.1-9.3 8.8-9.3s8.8 3.8 8.8 9.3c0 5.5-4.1 9.3-8.8 9.3zm0-24.6c-8.6 0-15.6 6.6-15.6 15.3 0 8.6 7 15.3 15.6 15.3s15.6-6.6 15.6-15.3c0-8.6-7-15.3-15.6-15.3zm36.1 3.4h-.2c-1.5-1.8-4.5-3.4-8.2-3.4-7.8 0-14.9 6.8-14.9 15.4 0 8.5 7.1 15.3 14.9 15.3 3.7 0 6.7-1.6 8.2-3.5h.2v2.2c0 5.9-3.2 9.1-8.2 9.1-4.2 0-6.8-3-7.9-5.6l-5.9 2.5c1.7 4 6.2 9 13.8 9 8 0 14.8-4.7 14.8-16.2v-28.1h-6.5v2.3zm-7.7 21.2c-4.7 0-8.6-4-8.6-9.2 0-5.3 3.9-9.3 8.6-9.3 4.7 0 8.2 4 8.2 9.3 0 5.2-3.5 9.2-8.2 9.2zm38.6-23.6h-6.8v44.7h6.8V32.7zm11.2 24.1c-2.2 0-3.8-1-4.9-2.9l20.4-8.4-.7-1.7c-1.3-3.5-5.3-10.1-13.5-10.1-8.1 0-14.8 6.4-14.8 15.3 0 8.4 6.4 15.3 15.5 15.3 7.3 0 11.6-4.5 13.4-7.1l-5.3-3.5c-1.8 2.6-4.2 3.1-6.1 3.1zm-.5-18.9c2.6 0 4.8 1.3 5.6 3.1l-13.7 5.7c-.2-6.3 4.8-8.8 8.1-8.8z"/>
</svg>
